<svg width="295" height="65" viewBox="0 0 295 65" fill="none" xmlns="http://www.w3.org/2000/svg">
<path d="M87.5938 27.4688C87.0104 30.8021 84.7083 32.4688 80.6875 32.4688H62.1875L56.4375 48.7188H45.1875L51 32.4688H40.4375C34.5208 46.9896 25.1979 54.2604 12.4688 54.2812C9.03125 54.2812 6.20833 53.6042 4 52.25C1.33333 50.625 0 48.1875 0 44.9375C0 42.3958 0.854167 39.8333 2.5625 37.25C6.875 30.7292 14.8021 27.4688 26.3438 27.4688H30.9062L40.5625 0H51.7812L41.9688 27.4688H52.7188L60.7188 4.75H72L63.9375 27.4688H87.5938ZM29.125 32.4688H28.2188C24.1146 32.4688 20.4271 33.5208 17.1562 35.625C13.3854 38.0417 11.5 41.1875 11.5 45.0625C11.5 47.75 12.6979 49.0938 15.0938 49.0938C18.0938 49.0938 21.0625 46.9896 24 42.7812C26.1875 39.6354 27.8958 36.1979 29.125 32.4688ZM112.469 43.7188C111.469 47.0521 108.917 48.7188 104.812 48.7188H92.9688C89.5938 48.7188 87.9062 47.6354 87.9062 45.4688C85.6354 48.0521 82.8438 49.3438 79.5312 49.3438C77.0938 49.3438 75.1146 48.5938 73.5938 47.0938C72.0729 45.5938 71.3125 43.6354 71.3125 41.2188C71.3125 36.8646 72.9792 33.4271 76.3125 30.9062C79.3333 28.6146 83.0729 27.4688 87.5312 27.4688H105.375L99.5 43.7188H112.469ZM92.3125 32.4688H85.4062L83.2188 39.75C83.0938 40.2083 83.0312 40.625 83.0312 41C83.0312 42.8125 84.8021 43.7188 88.3438 43.7188L92.3125 32.4688ZM133.969 14.6562C133.969 16.7396 133.156 18.5104 131.531 19.9688C129.927 21.4271 127.99 22.1562 125.719 22.1562C123.406 22.1562 121.438 21.4271 119.812 19.9688C118.208 18.5104 117.406 16.7396 117.406 14.6562C117.406 12.5938 118.208 10.8333 119.812 9.375C121.438 7.91667 123.406 7.1875 125.719 7.1875C127.99 7.1875 129.927 7.91667 131.531 9.375C133.156 10.8333 133.969 12.5938 133.969 14.6562ZM136.219 43.7188C135.677 45.5521 134.552 46.9062 132.844 47.7812C131.615 48.4062 130.281 48.7188 128.844 48.7188H116.5C113.521 48.7188 112.031 47.4688 112.031 44.9688C112.031 44.2604 112.177 43.5 112.469 42.6875L117.906 27.4688H129.25L123.469 43.7188H136.219ZM187.875 43.7188C187.042 47.0521 184.479 48.7188 180.188 48.7188H136.219C138.24 43.6354 140.542 41.0938 143.125 41.0938C143.458 41.0938 143.802 41.1354 144.156 41.2188L154.594 43.7188C157.26 43.7188 160.292 42.2708 163.688 39.375C166.875 36.6458 169.281 33.6354 170.906 30.3438C172.656 26.7812 173.531 23.5312 173.531 20.5938C173.531 17.1979 172.385 14.5 170.094 12.5C168.052 10.7083 165.531 9.8125 162.531 9.8125C159.594 9.8125 157.094 10.5312 155.031 11.9688C152.74 13.5938 151.594 15.7917 151.594 18.5625C153.281 16.7292 155.406 15.8125 157.969 15.8125C160.281 15.8125 162.25 16.5521 163.875 18.0312C165.5 19.4896 166.312 21.25 166.312 23.3125C166.312 25.4792 165.438 27.2917 163.688 28.75C162.062 30.125 160.156 30.8125 157.969 30.8125C154.115 30.8125 151.042 29.4896 148.75 26.8438C146.667 24.4271 145.625 21.4583 145.625 17.9375C145.625 13.9375 147.25 10.5312 150.5 7.71875C154.146 4.55208 159.094 2.96875 165.344 2.96875C172.198 2.96875 177.458 4.63542 181.125 7.96875C184.375 10.9479 186 14.8438 186 19.6562C186 24.9062 184.073 29.8125 180.219 34.375C176.115 39.25 170.875 42.3646 164.5 43.7188H187.875ZM209.344 14.6562C209.344 16.7396 208.531 18.5104 206.906 19.9688C205.302 21.4271 203.365 22.1562 201.094 22.1562C198.781 22.1562 196.812 21.4271 195.188 19.9688C193.583 18.5104 192.781 16.7396 192.781 14.6562C192.781 12.5938 193.583 10.8333 195.188 9.375C196.812 7.91667 198.781 7.1875 201.094 7.1875C203.365 7.1875 205.302 7.91667 206.906 9.375C208.531 10.8333 209.344 12.5938 209.344 14.6562ZM211.594 43.7188C211.052 45.5521 209.927 46.9062 208.219 47.7812C206.99 48.4062 205.656 48.7188 204.219 48.7188H191.875C188.896 48.7188 187.406 47.4688 187.406 44.9688C187.406 44.2604 187.552 43.5 187.844 42.6875L193.281 27.4688H204.625L198.844 43.7188H211.594ZM254.406 43.7188C253.865 45.5521 252.667 46.9062 250.812 47.7812C249.5 48.4062 248.094 48.7188 246.594 48.7188H234.125C231.271 48.7188 229.844 47.7812 229.844 45.9062C229.844 45.2812 229.99 44.5521 230.281 43.7188L232.656 37L221.906 46.0938C219.385 47.8438 217.312 48.7188 215.688 48.7188H209.938L217.406 27.4688H228.688L225.156 37.4688L234.688 29.6562C237.271 27.5521 240.073 26.5417 243.094 26.625C245.135 26.7083 246.156 27.7917 246.156 29.875C246.156 30.6458 245.99 31.5104 245.656 32.4688L241.625 43.7188H254.406ZM294.594 43.7188C293.635 47.0521 290.542 48.7188 285.312 48.7188H279.75C277.896 53.7604 276.052 57.4062 274.219 59.6562C271.531 62.9479 268.125 64.5938 264 64.5938C261.667 64.5938 259.802 63.9375 258.406 62.625C257.031 61.3333 256.344 59.5312 256.344 57.2188C256.344 52.6979 257.667 49.7812 260.312 48.4688C258.354 48.0104 256.74 47.1042 255.469 45.75C253.99 44.2083 253.25 42.3438 253.25 40.1562C253.25 39.3021 253.385 38.4062 253.656 37.4688C254.552 34.0729 256.521 31.5104 259.562 29.7812C262.229 28.2396 265.438 27.4688 269.188 27.4688H287.062L281.344 43.7188H294.594ZM274 32.4688H267.344L264.844 40.4062C264.698 40.8854 264.625 41.3229 264.625 41.7188C264.625 43.4896 265.917 44.375 268.5 44.375C268.667 44.375 268.906 44.3646 269.219 44.3438C269.552 44.3229 269.802 44.3125 269.969 44.3125L274 32.4688ZM268.5 49.5625C267.146 49.5625 265.875 50.3333 264.688 51.875C263.521 53.4375 262.938 54.9896 262.938 56.5312C262.938 57.9062 263.531 59.0104 264.719 59.8438L268.5 49.5625Z" fill="#FD8F00"/>
</svg>
