<svg width="121" height="27" viewBox="0 0 121 27" fill="none" xmlns="http://www.w3.org/2000/svg">
<path d="M36.4727 11.3672C36.2357 12.7214 35.3005 13.3984 33.667 13.3984H26.1514L23.8154 20H19.2451L21.6064 13.3984H17.3154C14.9118 19.2975 11.1243 22.2513 5.95312 22.2598C4.55664 22.2598 3.40983 21.9847 2.5127 21.4346C1.42936 20.7744 0.887695 19.7842 0.887695 18.4639C0.887695 17.4313 1.2347 16.3903 1.92871 15.3408C3.68066 12.6917 6.90104 11.3672 11.5898 11.3672H13.4434L17.3662 0.208008H21.9238L17.9375 11.3672H22.3047L25.5547 2.1377H30.1377L26.8623 11.3672H36.4727ZM12.7197 13.3984H12.3516C10.6842 13.3984 9.1862 13.8258 7.85742 14.6807C6.32552 15.6624 5.55957 16.9404 5.55957 18.5146C5.55957 19.6064 6.04622 20.1523 7.01953 20.1523C8.23828 20.1523 9.44434 19.2975 10.6377 17.5879C11.5264 16.3099 12.2204 14.9134 12.7197 13.3984ZM46.5781 17.9688C46.1719 19.3229 45.1351 20 43.4678 20H38.6562C37.2852 20 36.5996 19.5599 36.5996 18.6797C35.6771 19.7292 34.543 20.2539 33.1973 20.2539C32.207 20.2539 31.403 19.9492 30.7852 19.3398C30.1673 18.7305 29.8584 17.9349 29.8584 16.9531C29.8584 15.1842 30.5355 13.7878 31.8896 12.7637C33.1169 11.8327 34.6361 11.3672 36.4473 11.3672H43.6963L41.3096 17.9688H46.5781ZM38.3896 13.3984H35.584L34.6953 16.3564C34.6445 16.5426 34.6191 16.7119 34.6191 16.8643C34.6191 17.6006 35.3385 17.9688 36.7773 17.9688L38.3896 13.3984ZM55.3125 6.16211C55.3125 7.00846 54.9824 7.72786 54.3223 8.32031C53.6706 8.91276 52.8835 9.20898 51.9609 9.20898C51.0215 9.20898 50.2217 8.91276 49.5615 8.32031C48.9098 7.72786 48.584 7.00846 48.584 6.16211C48.584 5.32422 48.9098 4.60905 49.5615 4.0166C50.2217 3.42415 51.0215 3.12793 51.9609 3.12793C52.8835 3.12793 53.6706 3.42415 54.3223 4.0166C54.9824 4.60905 55.3125 5.32422 55.3125 6.16211ZM56.2266 17.9688C56.0065 18.7135 55.5495 19.2637 54.8555 19.6191C54.3561 19.873 53.8145 20 53.2305 20H48.2158C47.0055 20 46.4004 19.4922 46.4004 18.4766C46.4004 18.1888 46.4596 17.8799 46.5781 17.5498L48.7871 11.3672H53.3955L51.0469 17.9688H56.2266ZM77.2119 17.9688C76.8734 19.3229 75.8324 20 74.0889 20H56.2266C57.0475 17.9349 57.9827 16.9023 59.0322 16.9023C59.1676 16.9023 59.3073 16.9193 59.4512 16.9531L63.6914 17.9688C64.7747 17.9688 66.0062 17.3805 67.3857 16.2041C68.6807 15.0954 69.6582 13.8724 70.3184 12.5352C71.0293 11.0879 71.3848 9.76758 71.3848 8.57422C71.3848 7.19466 70.9193 6.09863 69.9883 5.28613C69.1589 4.55827 68.1348 4.19434 66.916 4.19434C65.7227 4.19434 64.707 4.48633 63.8691 5.07031C62.9382 5.73047 62.4727 6.62337 62.4727 7.74902C63.1582 7.00423 64.0215 6.63184 65.0625 6.63184C66.002 6.63184 66.8018 6.93229 67.4619 7.5332C68.1221 8.12565 68.4521 8.84082 68.4521 9.67871C68.4521 10.5589 68.0967 11.2952 67.3857 11.8877C66.7256 12.4463 65.9512 12.7256 65.0625 12.7256C63.4967 12.7256 62.2484 12.1882 61.3174 11.1133C60.471 10.1315 60.0479 8.92546 60.0479 7.49512C60.0479 5.87012 60.708 4.48633 62.0283 3.34375C63.5094 2.05729 65.5195 1.41406 68.0586 1.41406C70.8431 1.41406 72.9801 2.09115 74.4697 3.44531C75.79 4.6556 76.4502 6.23828 76.4502 8.19336C76.4502 10.3262 75.6673 12.3193 74.1016 14.1729C72.4342 16.1533 70.3057 17.4186 67.7158 17.9688H77.2119ZM85.9336 6.16211C85.9336 7.00846 85.6035 7.72786 84.9434 8.32031C84.2917 8.91276 83.5046 9.20898 82.582 9.20898C81.6426 9.20898 80.8428 8.91276 80.1826 8.32031C79.5309 7.72786 79.2051 7.00846 79.2051 6.16211C79.2051 5.32422 79.5309 4.60905 80.1826 4.0166C80.8428 3.42415 81.6426 3.12793 82.582 3.12793C83.5046 3.12793 84.2917 3.42415 84.9434 4.0166C85.6035 4.60905 85.9336 5.32422 85.9336 6.16211ZM86.8477 17.9688C86.6276 18.7135 86.1706 19.2637 85.4766 19.6191C84.9772 19.873 84.4355 20 83.8516 20H78.8369C77.6266 20 77.0215 19.4922 77.0215 18.4766C77.0215 18.1888 77.0807 17.8799 77.1992 17.5498L79.4082 11.3672H84.0166L81.668 17.9688H86.8477ZM104.24 17.9688C104.02 18.7135 103.534 19.2637 102.78 19.6191C102.247 19.873 101.676 20 101.066 20H96.001C94.8415 20 94.2617 19.6191 94.2617 18.8574C94.2617 18.6035 94.321 18.3073 94.4395 17.9688L95.4043 15.2393L91.0371 18.9336C90.013 19.6445 89.1709 20 88.5107 20H86.1748L89.209 11.3672H93.792L92.3574 15.4297L96.2295 12.2559C97.279 11.401 98.4173 10.9906 99.6445 11.0244C100.474 11.0583 100.889 11.4984 100.889 12.3447C100.889 12.6579 100.821 13.0091 100.686 13.3984L99.0479 17.9688H104.24ZM120.566 17.9688C120.177 19.3229 118.92 20 116.796 20H114.536C113.783 22.0482 113.034 23.5293 112.289 24.4434C111.197 25.7806 109.813 26.4492 108.138 26.4492C107.19 26.4492 106.432 26.1826 105.865 25.6494C105.307 25.1247 105.027 24.3926 105.027 23.4531C105.027 21.6165 105.565 20.4316 106.64 19.8984C105.844 19.7122 105.188 19.3441 104.672 18.7939C104.071 18.1676 103.771 17.4102 103.771 16.5215C103.771 16.1745 103.826 15.8105 103.936 15.4297C104.299 14.0501 105.099 13.0091 106.335 12.3066C107.418 11.6803 108.722 11.3672 110.245 11.3672H117.507L115.184 17.9688H120.566ZM112.2 13.3984H109.496L108.48 16.623C108.421 16.8177 108.392 16.9954 108.392 17.1562C108.392 17.8757 108.916 18.2354 109.966 18.2354C110.034 18.2354 110.131 18.2311 110.258 18.2227C110.393 18.2142 110.495 18.21 110.562 18.21L112.2 13.3984ZM109.966 20.3428C109.416 20.3428 108.899 20.6559 108.417 21.2822C107.943 21.917 107.706 22.5475 107.706 23.1738C107.706 23.7324 107.947 24.181 108.43 24.5195L109.966 20.3428Z" fill="#248800"/>
</svg>
