<svg width="139" height="31" viewBox="0 0 139 31" fill="none" xmlns="http://www.w3.org/2000/svg">
<path d="M41.6992 13.0391C41.4258 14.6016 40.3467 15.3828 38.4619 15.3828H29.79L27.0947 23H21.8213L24.5459 15.3828H19.5947C16.8213 22.1895 12.4512 25.5977 6.48438 25.6074C4.87305 25.6074 3.5498 25.29 2.51465 24.6553C1.26465 23.8936 0.639648 22.751 0.639648 21.2275C0.639648 20.0361 1.04004 18.835 1.84082 17.624C3.8623 14.5674 7.57812 13.0391 12.9883 13.0391H15.127L19.6533 0.163086H24.9121L20.3125 13.0391H25.3516L29.1016 2.38965H34.3896L30.6104 13.0391H41.6992ZM14.292 15.3828H13.8672C11.9434 15.3828 10.2148 15.876 8.68164 16.8623C6.91406 17.9951 6.03027 19.4697 6.03027 21.2861C6.03027 22.5459 6.5918 23.1758 7.71484 23.1758C9.12109 23.1758 10.5127 22.1895 11.8896 20.2168C12.915 18.7422 13.7158 17.1309 14.292 15.3828ZM53.3594 20.6562C52.8906 22.2188 51.6943 23 49.7705 23H44.2188C42.6367 23 41.8457 22.4922 41.8457 21.4766C40.7812 22.6875 39.4727 23.293 37.9199 23.293C36.7773 23.293 35.8496 22.9414 35.1367 22.2383C34.4238 21.5352 34.0674 20.6172 34.0674 19.4844C34.0674 17.4434 34.8486 15.832 36.4111 14.6504C37.8271 13.5762 39.5801 13.0391 41.6699 13.0391H50.0342L47.2803 20.6562H53.3594ZM43.9111 15.3828H40.6738L39.6484 18.7959C39.5898 19.0107 39.5605 19.2061 39.5605 19.3818C39.5605 20.2314 40.3906 20.6562 42.0508 20.6562L43.9111 15.3828ZM63.4375 7.0332C63.4375 8.00977 63.0566 8.83984 62.2949 9.52344C61.543 10.207 60.6348 10.5488 59.5703 10.5488C58.4863 10.5488 57.5635 10.207 56.8018 9.52344C56.0498 8.83984 55.6738 8.00977 55.6738 7.0332C55.6738 6.06641 56.0498 5.24121 56.8018 4.55762C57.5635 3.87402 58.4863 3.53223 59.5703 3.53223C60.6348 3.53223 61.543 3.87402 62.2949 4.55762C63.0566 5.24121 63.4375 6.06641 63.4375 7.0332ZM64.4922 20.6562C64.2383 21.5156 63.7109 22.1504 62.9102 22.5605C62.334 22.8535 61.709 23 61.0352 23H55.249C53.8525 23 53.1543 22.4141 53.1543 21.2422C53.1543 20.9102 53.2227 20.5537 53.3594 20.1729L55.9082 13.0391H61.2256L58.5156 20.6562H64.4922ZM88.7061 20.6562C88.3154 22.2188 87.1143 23 85.1025 23H64.4922C65.4395 20.6172 66.5186 19.4258 67.7295 19.4258C67.8857 19.4258 68.0469 19.4453 68.2129 19.4844L73.1055 20.6562C74.3555 20.6562 75.7764 19.9775 77.3682 18.6201C78.8623 17.3408 79.9902 15.9297 80.752 14.3867C81.5723 12.7168 81.9824 11.1934 81.9824 9.81641C81.9824 8.22461 81.4453 6.95996 80.3711 6.02246C79.4141 5.18262 78.2324 4.7627 76.8262 4.7627C75.4492 4.7627 74.2773 5.09961 73.3105 5.77344C72.2363 6.53516 71.6992 7.56543 71.6992 8.86426C72.4902 8.00488 73.4863 7.5752 74.6875 7.5752C75.7715 7.5752 76.6943 7.92188 77.4561 8.61523C78.2178 9.29883 78.5986 10.124 78.5986 11.0908C78.5986 12.1064 78.1885 12.9561 77.3682 13.6396C76.6064 14.2842 75.7129 14.6064 74.6875 14.6064C72.8809 14.6064 71.4404 13.9863 70.3662 12.7461C69.3896 11.6133 68.9014 10.2217 68.9014 8.57129C68.9014 6.69629 69.6631 5.09961 71.1865 3.78125C72.8955 2.29688 75.2148 1.55469 78.1445 1.55469C81.3574 1.55469 83.8232 2.33594 85.542 3.89844C87.0654 5.29492 87.8271 7.12109 87.8271 9.37695C87.8271 11.8379 86.9238 14.1377 85.1172 16.2764C83.1934 18.5615 80.7373 20.0215 77.749 20.6562H88.7061ZM98.7695 7.0332C98.7695 8.00977 98.3887 8.83984 97.627 9.52344C96.875 10.207 95.9668 10.5488 94.9023 10.5488C93.8184 10.5488 92.8955 10.207 92.1338 9.52344C91.3818 8.83984 91.0059 8.00977 91.0059 7.0332C91.0059 6.06641 91.3818 5.24121 92.1338 4.55762C92.8955 3.87402 93.8184 3.53223 94.9023 3.53223C95.9668 3.53223 96.875 3.87402 97.627 4.55762C98.3887 5.24121 98.7695 6.06641 98.7695 7.0332ZM99.8242 20.6562C99.5703 21.5156 99.043 22.1504 98.2422 22.5605C97.666 22.8535 97.041 23 96.3672 23H90.5811C89.1846 23 88.4863 22.4141 88.4863 21.2422C88.4863 20.9102 88.5547 20.5537 88.6914 20.1729L91.2402 13.0391H96.5576L93.8477 20.6562H99.8242ZM119.893 20.6562C119.639 21.5156 119.077 22.1504 118.208 22.5605C117.593 22.8535 116.934 23 116.23 23H110.386C109.048 23 108.379 22.5605 108.379 21.6816C108.379 21.3887 108.447 21.0469 108.584 20.6562L109.697 17.5068L104.658 21.7695C103.477 22.5898 102.505 23 101.743 23H99.0479L102.549 13.0391H107.837L106.182 17.7266L110.649 14.0645C111.86 13.0781 113.174 12.6045 114.59 12.6436C115.547 12.6826 116.025 13.1904 116.025 14.167C116.025 14.5283 115.947 14.9336 115.791 15.3828L113.901 20.6562H119.893ZM138.73 20.6562C138.281 22.2188 136.831 23 134.38 23H131.772C130.903 25.3633 130.039 27.0723 129.18 28.127C127.92 29.6699 126.323 30.4414 124.39 30.4414C123.296 30.4414 122.422 30.1338 121.768 29.5186C121.123 28.9131 120.801 28.0684 120.801 26.9844C120.801 24.8652 121.421 23.498 122.661 22.8828C121.743 22.668 120.986 22.2432 120.391 21.6084C119.697 20.8857 119.351 20.0117 119.351 18.9863C119.351 18.5859 119.414 18.166 119.541 17.7266C119.961 16.1348 120.884 14.9336 122.31 14.123C123.56 13.4004 125.063 13.0391 126.821 13.0391H135.2L132.52 20.6562H138.73ZM129.077 15.3828H125.957L124.785 19.1035C124.717 19.3281 124.683 19.5332 124.683 19.7188C124.683 20.5488 125.288 20.9639 126.499 20.9639C126.577 20.9639 126.689 20.959 126.836 20.9492C126.992 20.9395 127.109 20.9346 127.188 20.9346L129.077 15.3828ZM126.499 23.3955C125.864 23.3955 125.269 23.7568 124.712 24.4795C124.165 25.2119 123.892 25.9395 123.892 26.6621C123.892 27.3066 124.17 27.8242 124.727 28.2148L126.499 23.3955Z" fill="#3A8C1C"/>
</svg>
