<svg width="111" height="25" viewBox="0 0 111 25" fill="none" xmlns="http://www.w3.org/2000/svg">
<path d="M32.8594 11.0312C32.6406 12.2812 31.7773 12.9062 30.2695 12.9062H23.332L21.1758 19H16.957L19.1367 12.9062H15.1758C12.957 18.3516 9.46094 21.0781 4.6875 21.0859C3.39844 21.0859 2.33984 20.832 1.51172 20.3242C0.511719 19.7148 0.0117188 18.8008 0.0117188 17.582C0.0117188 16.6289 0.332031 15.668 0.972656 14.6992C2.58984 12.2539 5.5625 11.0312 9.89062 11.0312H11.6016L15.2227 0.730469H19.4297L15.75 11.0312H19.7812L22.7812 2.51172H27.0117L23.9883 11.0312H32.8594ZM10.9336 12.9062H10.5938C9.05469 12.9062 7.67188 13.3008 6.44531 14.0898C5.03125 14.9961 4.32422 16.1758 4.32422 17.6289C4.32422 18.6367 4.77344 19.1406 5.67188 19.1406C6.79688 19.1406 7.91016 18.3516 9.01172 16.7734C9.83203 15.5938 10.4727 14.3047 10.9336 12.9062ZM42.1875 17.125C41.8125 18.375 40.8555 19 39.3164 19H34.875C33.6094 19 32.9766 18.5938 32.9766 17.7812C32.125 18.75 31.0781 19.2344 29.8359 19.2344C28.9219 19.2344 28.1797 18.9531 27.6094 18.3906C27.0391 17.8281 26.7539 17.0938 26.7539 16.1875C26.7539 14.5547 27.3789 13.2656 28.6289 12.3203C29.7617 11.4609 31.1641 11.0312 32.8359 11.0312H39.5273L37.3242 17.125H42.1875ZM34.6289 12.9062H32.0391L31.2188 15.6367C31.1719 15.8086 31.1484 15.9648 31.1484 16.1055C31.1484 16.7852 31.8125 17.125 33.1406 17.125L34.6289 12.9062ZM50.25 6.22656C50.25 7.00781 49.9453 7.67188 49.3359 8.21875C48.7344 8.76562 48.0078 9.03906 47.1562 9.03906C46.2891 9.03906 45.5508 8.76562 44.9414 8.21875C44.3398 7.67188 44.0391 7.00781 44.0391 6.22656C44.0391 5.45312 44.3398 4.79297 44.9414 4.24609C45.5508 3.69922 46.2891 3.42578 47.1562 3.42578C48.0078 3.42578 48.7344 3.69922 49.3359 4.24609C49.9453 4.79297 50.25 5.45312 50.25 6.22656ZM51.0938 17.125C50.8906 17.8125 50.4688 18.3203 49.8281 18.6484C49.3672 18.8828 48.8672 19 48.3281 19H43.6992C42.582 19 42.0234 18.5312 42.0234 17.5938C42.0234 17.3281 42.0781 17.043 42.1875 16.7383L44.2266 11.0312H48.4805L46.3125 17.125H51.0938ZM70.4648 17.125C70.1523 18.375 69.1914 19 67.582 19H51.0938C51.8516 17.0938 52.7148 16.1406 53.6836 16.1406C53.8086 16.1406 53.9375 16.1562 54.0703 16.1875L57.9844 17.125C58.9844 17.125 60.1211 16.582 61.3945 15.4961C62.5898 14.4727 63.4922 13.3438 64.1016 12.1094C64.7578 10.7734 65.0859 9.55469 65.0859 8.45312C65.0859 7.17969 64.6562 6.16797 63.7969 5.41797C63.0312 4.74609 62.0859 4.41016 60.9609 4.41016C59.8594 4.41016 58.9219 4.67969 58.1484 5.21875C57.2891 5.82812 56.8594 6.65234 56.8594 7.69141C57.4922 7.00391 58.2891 6.66016 59.25 6.66016C60.1172 6.66016 60.8555 6.9375 61.4648 7.49219C62.0742 8.03906 62.3789 8.69922 62.3789 9.47266C62.3789 10.2852 62.0508 10.9648 61.3945 11.5117C60.7852 12.0273 60.0703 12.2852 59.25 12.2852C57.8047 12.2852 56.6523 11.7891 55.793 10.7969C55.0117 9.89062 54.6211 8.77734 54.6211 7.45703C54.6211 5.95703 55.2305 4.67969 56.4492 3.625C57.8164 2.4375 59.6719 1.84375 62.0156 1.84375C64.5859 1.84375 66.5586 2.46875 67.9336 3.71875C69.1523 4.83594 69.7617 6.29688 69.7617 8.10156C69.7617 10.0703 69.0391 11.9102 67.5938 13.6211C66.0547 15.4492 64.0898 16.6172 61.6992 17.125H70.4648ZM78.5156 6.22656C78.5156 7.00781 78.2109 7.67188 77.6016 8.21875C77 8.76562 76.2734 9.03906 75.4219 9.03906C74.5547 9.03906 73.8164 8.76562 73.207 8.21875C72.6055 7.67188 72.3047 7.00781 72.3047 6.22656C72.3047 5.45312 72.6055 4.79297 73.207 4.24609C73.8164 3.69922 74.5547 3.42578 75.4219 3.42578C76.2734 3.42578 77 3.69922 77.6016 4.24609C78.2109 4.79297 78.5156 5.45312 78.5156 6.22656ZM79.3594 17.125C79.1562 17.8125 78.7344 18.3203 78.0938 18.6484C77.6328 18.8828 77.1328 19 76.5938 19H71.9648C70.8477 19 70.2891 18.5312 70.2891 17.5938C70.2891 17.3281 70.3438 17.043 70.4531 16.7383L72.4922 11.0312H76.7461L74.5781 17.125H79.3594ZM95.4141 17.125C95.2109 17.8125 94.7617 18.3203 94.0664 18.6484C93.5742 18.8828 93.0469 19 92.4844 19H87.8086C86.7383 19 86.2031 18.6484 86.2031 17.9453C86.2031 17.7109 86.2578 17.4375 86.3672 17.125L87.2578 14.6055L83.2266 18.0156C82.2812 18.6719 81.5039 19 80.8945 19H78.7383L81.5391 11.0312H85.7695L84.4453 14.7812L88.0195 11.8516C88.9883 11.0625 90.0391 10.6836 91.1719 10.7148C91.9375 10.7461 92.3203 11.1523 92.3203 11.9336C92.3203 12.2227 92.2578 12.5469 92.1328 12.9062L90.6211 17.125H95.4141ZM110.484 17.125C110.125 18.375 108.965 19 107.004 19H104.918C104.223 20.8906 103.531 22.2578 102.844 23.1016C101.836 24.3359 100.559 24.9531 99.0117 24.9531C98.1367 24.9531 97.4375 24.707 96.9141 24.2148C96.3984 23.7305 96.1406 23.0547 96.1406 22.1875C96.1406 20.4922 96.6367 19.3984 97.6289 18.9062C96.8945 18.7344 96.2891 18.3945 95.8125 17.8867C95.2578 17.3086 94.9805 16.6094 94.9805 15.7891C94.9805 15.4688 95.0312 15.1328 95.1328 14.7812C95.4688 13.5078 96.207 12.5469 97.3477 11.8984C98.3477 11.3203 99.5508 11.0312 100.957 11.0312H107.66L105.516 17.125H110.484ZM102.762 12.9062H100.266L99.3281 15.8828C99.2734 16.0625 99.2461 16.2266 99.2461 16.375C99.2461 17.0391 99.7305 17.3711 100.699 17.3711C100.762 17.3711 100.852 17.3672 100.969 17.3594C101.094 17.3516 101.188 17.3477 101.25 17.3477L102.762 12.9062ZM100.699 19.3164C100.191 19.3164 99.7148 19.6055 99.2695 20.1836C98.832 20.7695 98.6133 21.3516 98.6133 21.9297C98.6133 22.4453 98.8359 22.8594 99.2812 23.1719L100.699 19.3164Z" fill="#5BAC3E"/>
</svg>
