<svg width="116" height="27" viewBox="0 0 116 27" fill="none" xmlns="http://www.w3.org/2000/svg">
<path d="M34.416 11.6992C34.1882 13.0013 33.2889 13.6523 31.7183 13.6523H24.4917L22.2456 20H17.8511L20.1216 13.6523H15.9956C13.6844 19.3245 10.0426 22.1647 5.07031 22.1729C3.72754 22.1729 2.62484 21.9084 1.76221 21.3794C0.72054 20.7446 0.199707 19.7925 0.199707 18.5229C0.199707 17.5301 0.533366 16.5291 1.20068 15.52C2.88525 12.9728 5.98177 11.6992 10.4902 11.6992H12.2725L16.0444 0.969238H20.4268L16.5938 11.6992H20.793L23.918 2.82471H28.3247L25.1753 11.6992H34.416ZM11.5767 13.6523H11.2227C9.61947 13.6523 8.17904 14.0633 6.90137 14.8853C5.42839 15.8293 4.69189 17.0581 4.69189 18.5718C4.69189 19.6216 5.15983 20.1465 6.0957 20.1465C7.26758 20.1465 8.42725 19.3245 9.57471 17.6807C10.4292 16.4518 11.0965 15.109 11.5767 13.6523ZM44.1328 18.0469C43.7422 19.349 42.7453 20 41.1421 20H36.5156C35.1973 20 34.5381 19.5768 34.5381 18.7305C33.651 19.7396 32.5605 20.2441 31.2666 20.2441C30.3145 20.2441 29.5413 19.9512 28.9473 19.3652C28.3532 18.7793 28.0562 18.0143 28.0562 17.0703C28.0562 15.3695 28.7072 14.0267 30.0093 13.042C31.1893 12.1468 32.6501 11.6992 34.3916 11.6992H41.3618L39.0669 18.0469H44.1328ZM36.2593 13.6523H33.5615L32.707 16.4966C32.6582 16.6756 32.6338 16.8384 32.6338 16.9849C32.6338 17.6929 33.3255 18.0469 34.709 18.0469L36.2593 13.6523ZM52.5312 6.69434C52.5312 7.50814 52.2139 8.19987 51.5791 8.76953C50.9525 9.33919 50.1956 9.62402 49.3086 9.62402C48.4053 9.62402 47.6362 9.33919 47.0015 8.76953C46.3748 8.19987 46.0615 7.50814 46.0615 6.69434C46.0615 5.88867 46.3748 5.20101 47.0015 4.63135C47.6362 4.06169 48.4053 3.77686 49.3086 3.77686C50.1956 3.77686 50.9525 4.06169 51.5791 4.63135C52.2139 5.20101 52.5312 5.88867 52.5312 6.69434ZM53.4102 18.0469C53.1986 18.763 52.7591 19.292 52.0918 19.6338C51.6117 19.8779 51.0908 20 50.5293 20H45.7075C44.5438 20 43.9619 19.5117 43.9619 18.5352C43.9619 18.2585 44.0189 17.9614 44.1328 17.644L46.2568 11.6992H50.688L48.4297 18.0469H53.4102ZM73.5884 18.0469C73.2629 19.349 72.2619 20 70.5854 20H53.4102C54.1995 18.0143 55.0988 17.0215 56.1079 17.0215C56.2381 17.0215 56.3724 17.0378 56.5107 17.0703L60.5879 18.0469C61.6296 18.0469 62.8136 17.4813 64.1401 16.3501C65.3853 15.284 66.3252 14.1081 66.96 12.8223C67.6436 11.4307 67.9854 10.1611 67.9854 9.01367C67.9854 7.68717 67.5378 6.6333 66.6426 5.85205C65.8451 5.15218 64.8604 4.80225 63.6885 4.80225C62.541 4.80225 61.5645 5.08301 60.7588 5.64453C59.8636 6.2793 59.416 7.13786 59.416 8.22021C60.0752 7.50407 60.9053 7.146 61.9062 7.146C62.8096 7.146 63.5786 7.4349 64.2134 8.0127C64.8481 8.58236 65.1655 9.27002 65.1655 10.0757C65.1655 10.922 64.8237 11.63 64.1401 12.1997C63.5054 12.7368 62.7607 13.0054 61.9062 13.0054C60.4007 13.0054 59.2004 12.4886 58.3052 11.4551C57.4914 10.5111 57.0845 9.3514 57.0845 7.97607C57.0845 6.41357 57.7192 5.08301 58.9888 3.98438C60.4129 2.7474 62.3457 2.12891 64.7871 2.12891C67.4645 2.12891 69.5194 2.77995 70.9517 4.08203C72.2212 5.24577 72.856 6.76758 72.856 8.64746C72.856 10.6982 72.1032 12.6147 70.5977 14.397C68.9945 16.3013 66.9478 17.5179 64.4575 18.0469H73.5884ZM81.9746 6.69434C81.9746 7.50814 81.6572 8.19987 81.0225 8.76953C80.3958 9.33919 79.639 9.62402 78.752 9.62402C77.8486 9.62402 77.0796 9.33919 76.4448 8.76953C75.8182 8.19987 75.5049 7.50814 75.5049 6.69434C75.5049 5.88867 75.8182 5.20101 76.4448 4.63135C77.0796 4.06169 77.8486 3.77686 78.752 3.77686C79.639 3.77686 80.3958 4.06169 81.0225 4.63135C81.6572 5.20101 81.9746 5.88867 81.9746 6.69434ZM82.8535 18.0469C82.6419 18.763 82.2025 19.292 81.5352 19.6338C81.055 19.8779 80.5342 20 79.9727 20H75.1509C73.9871 20 73.4053 19.5117 73.4053 18.5352C73.4053 18.2585 73.4622 17.9614 73.5762 17.644L75.7002 11.6992H80.1313L77.873 18.0469H82.8535ZM99.5771 18.0469C99.3656 18.763 98.8976 19.292 98.1733 19.6338C97.6606 19.8779 97.1113 20 96.5254 20H91.6548C90.5399 20 89.9824 19.6338 89.9824 18.9014C89.9824 18.6572 90.0394 18.3724 90.1533 18.0469L91.0811 15.4224L86.8818 18.9746C85.8971 19.6582 85.0874 20 84.4526 20H82.2065L85.124 11.6992H89.5308L88.1514 15.6055L91.8745 12.5537C92.8836 11.7318 93.9782 11.3371 95.1582 11.3696C95.9557 11.4022 96.3545 11.8254 96.3545 12.6392C96.3545 12.9403 96.2894 13.278 96.1592 13.6523L94.5845 18.0469H99.5771ZM115.275 18.0469C114.901 19.349 113.693 20 111.65 20H109.477C108.753 21.9694 108.033 23.3936 107.316 24.2725C106.267 25.5583 104.936 26.2012 103.325 26.2012C102.413 26.2012 101.685 25.9448 101.14 25.4321C100.603 24.9276 100.334 24.2236 100.334 23.3203C100.334 21.5544 100.851 20.415 101.884 19.9023C101.119 19.7233 100.489 19.3693 99.9922 18.8403C99.4144 18.2381 99.1255 17.5098 99.1255 16.6553C99.1255 16.3216 99.1784 15.9717 99.2842 15.6055C99.6341 14.279 100.403 13.278 101.591 12.6025C102.633 12.0003 103.886 11.6992 105.351 11.6992H112.333L110.1 18.0469H115.275ZM107.231 13.6523H104.631L103.654 16.7529C103.597 16.9401 103.569 17.111 103.569 17.2656C103.569 17.9574 104.073 18.3032 105.083 18.3032C105.148 18.3032 105.241 18.2992 105.363 18.291C105.493 18.2829 105.591 18.2788 105.656 18.2788L107.231 13.6523ZM105.083 20.3296C104.554 20.3296 104.057 20.6307 103.593 21.2329C103.138 21.8433 102.91 22.4495 102.91 23.0518C102.91 23.5889 103.142 24.0202 103.605 24.3457L105.083 20.3296Z" fill="#289600"/>
</svg>
