<svg width="66" height="29" viewBox="0 0 66 29" fill="none" xmlns="http://www.w3.org/2000/svg">
<path d="M46.6211 14.7109C46.3112 16.4818 45.0882 17.3672 42.9521 17.3672H33.124L30.0693 26H24.0928L27.1807 17.3672H21.5693C18.4261 25.0814 13.4733 28.944 6.71094 28.9551C4.88477 28.9551 3.38509 28.5954 2.21191 27.876C0.795247 27.0127 0.0869141 25.7178 0.0869141 23.9912C0.0869141 22.641 0.54069 21.2796 1.44824 19.9072C3.73926 16.443 7.95052 14.7109 14.082 14.7109H16.5059L21.6357 0.118164H27.5957L22.3828 14.7109H28.0938L32.3438 2.6416H38.3369L34.0537 14.7109H46.6211ZM15.5596 17.3672H15.0781C12.8978 17.3672 10.9388 17.9261 9.20117 19.0439C7.19792 20.3278 6.19629 21.999 6.19629 24.0576C6.19629 25.4854 6.83268 26.1992 8.10547 26.1992C9.69922 26.1992 11.2764 25.0814 12.8369 22.8457C13.999 21.1745 14.9066 19.3483 15.5596 17.3672ZM65.8291 23.3438C65.3864 25.1146 64.0251 26 61.7451 26H38.3867C39.4603 23.2995 40.6833 21.9492 42.0557 21.9492C42.2327 21.9492 42.4154 21.9714 42.6035 22.0156L48.1484 23.3438C49.5651 23.3438 51.1755 22.5745 52.9795 21.0361C54.6729 19.5863 55.9512 17.987 56.8145 16.2383C57.7441 14.3457 58.209 12.6191 58.209 11.0586C58.209 9.25456 57.6003 7.82129 56.3828 6.75879C55.2982 5.80697 53.959 5.33105 52.3652 5.33105C50.8047 5.33105 49.4766 5.71289 48.3809 6.47656C47.1634 7.33984 46.5547 8.50749 46.5547 9.97949C47.4512 9.00553 48.5801 8.51855 49.9414 8.51855C51.1699 8.51855 52.2158 8.91146 53.0791 9.69727C53.9424 10.472 54.374 11.4072 54.374 12.5029C54.374 13.654 53.9092 14.6169 52.9795 15.3916C52.1162 16.1221 51.1035 16.4873 49.9414 16.4873C47.8939 16.4873 46.2614 15.7845 45.0439 14.3789C43.9372 13.0951 43.3838 11.5179 43.3838 9.64746C43.3838 7.52246 44.2471 5.71289 45.9736 4.21875C47.9105 2.53646 50.5391 1.69531 53.8594 1.69531C57.5007 1.69531 60.2952 2.58073 62.2432 4.35156C63.9697 5.93424 64.833 8.00391 64.833 10.5605C64.833 13.3496 63.8092 15.9561 61.7617 18.3799C59.5814 20.9697 56.7979 22.6243 53.4111 23.3438H65.8291Z" fill="#3A8C1C"/>
</svg>
