<svg width="124" height="55" viewBox="0 0 124 55" fill="none" xmlns="http://www.w3.org/2000/svg">
<path d="M87.5938 27.4688C87.0104 30.8021 84.7083 32.4688 80.6875 32.4688H62.1875L56.4375 48.7188H45.1875L51 32.4688H40.4375C34.5208 46.9896 25.1979 54.2604 12.4688 54.2812C9.03125 54.2812 6.20833 53.6042 4 52.25C1.33333 50.625 0 48.1875 0 44.9375C0 42.3958 0.854167 39.8333 2.5625 37.25C6.875 30.7292 14.8021 27.4688 26.3438 27.4688H30.9062L40.5625 0H51.7812L41.9688 27.4688H52.7188L60.7188 4.75H72L63.9375 27.4688H87.5938ZM29.125 32.4688H28.2188C24.1146 32.4688 20.4271 33.5208 17.1562 35.625C13.3854 38.0417 11.5 41.1875 11.5 45.0625C11.5 47.75 12.6979 49.0938 15.0938 49.0938C18.0938 49.0938 21.0625 46.9896 24 42.7812C26.1875 39.6354 27.8958 36.1979 29.125 32.4688ZM123.75 43.7188C122.917 47.0521 120.354 48.7188 116.062 48.7188H72.0938C74.1146 43.6354 76.4167 41.0938 79 41.0938C79.3333 41.0938 79.6771 41.1354 80.0312 41.2188L90.4688 43.7188C93.1354 43.7188 96.1667 42.2708 99.5625 39.375C102.75 36.6458 105.156 33.6354 106.781 30.3438C108.531 26.7812 109.406 23.5312 109.406 20.5938C109.406 17.1979 108.26 14.5 105.969 12.5C103.927 10.7083 101.406 9.8125 98.4062 9.8125C95.4688 9.8125 92.9688 10.5312 90.9062 11.9688C88.6146 13.5938 87.4688 15.7917 87.4688 18.5625C89.1562 16.7292 91.2812 15.8125 93.8438 15.8125C96.1562 15.8125 98.125 16.5521 99.75 18.0312C101.375 19.4896 102.188 21.25 102.188 23.3125C102.188 25.4792 101.312 27.2917 99.5625 28.75C97.9375 30.125 96.0312 30.8125 93.8438 30.8125C89.9896 30.8125 86.9167 29.4896 84.625 26.8438C82.5417 24.4271 81.5 21.4583 81.5 17.9375C81.5 13.9375 83.125 10.5312 86.375 7.71875C90.0208 4.55208 94.9688 2.96875 101.219 2.96875C108.073 2.96875 113.333 4.63542 117 7.96875C120.25 10.9479 121.875 14.8438 121.875 19.6562C121.875 24.9062 119.948 29.8125 116.094 34.375C111.99 39.25 106.75 42.3646 100.375 43.7188H123.75Z" fill="#FD8F00"/>
</svg>
